<svg width="18" height="19" viewBox="0 0 18 19" fill="none" xmlns="http://www.w3.org/2000/svg">
<path d="M17.2715 7.39401V13.9887C17.2715 15.986 15.6523 17.6051 13.6551 17.6051H4.29489C2.2976 17.6051 0.678471 15.986 0.678471 13.9887V4.62851C0.678471 2.63121 2.2976 1.01208 4.29489 1.01208H10.2514" stroke="#123968" stroke-width="1.35469" stroke-linecap="round"/>
<path d="M15.8477 0.186823C16.0969 -0.0624062 16.501 -0.0624065 16.7502 0.186823L17.8129 1.24956C18.0622 1.49879 18.0622 1.90287 17.8129 2.1521L10.4587 9.50639C10.4218 9.54329 10.3805 9.57552 10.3357 9.60237L7.67888 11.1965C7.10918 11.5383 6.46147 10.8906 6.80329 10.3209L8.3974 7.66404C8.42424 7.61929 8.45648 7.57801 8.49337 7.54111L15.8477 0.186823Z" fill="#123968"/>
</svg>
